<svg xmlns="http://www.w3.org/2000/svg" enable-background="new 0 0 64 64" viewBox="0 0 64 64" id="credit-card-protection">
  <g>
    <path d="M6.41 39.6h30.23c.43 0 .77-.35.77-.77 0-.43-.35-.77-.77-.77H6.41c-.43 0-.77.35-.77.77C5.64 39.25 5.99 39.6 6.41 39.6zM6.41 48.97h37.36c.43 0 .77-.35.77-.77 0-.43-.35-.77-.77-.77H6.41c-.43 0-.77.35-.77.77C5.64 48.62 5.99 48.97 6.41 48.97zM6.41 44.29h2.71c.43 0 .77-.35.77-.77s-.35-.77-.77-.77H6.41c-.43 0-.77.35-.77.77S5.99 44.29 6.41 44.29zM12.17 42.74c-.43 0-.77.35-.77.77s.35.77.77.77h2.72c.43 0 .77-.35.77-.77s-.35-.77-.77-.77H12.17zM17.93 42.74c-.43 0-.77.35-.77.77s.35.77.77.77h2.71c.43 0 .77-.35.77-.77s-.35-.77-.77-.77H17.93zM23.69 42.74c-.43 0-.77.35-.77.77s.35.77.77.77h2.72c.43 0 .77-.35.77-.77s-.35-.77-.77-.77H23.69zM29.45 42.74c-.43 0-.77.35-.77.77s.35.77.77.77h2.71c.43 0 .77-.35.77-.77s-.35-.77-.77-.77H29.45zM34.44 43.51c0 .43.35.77.77.77h2.72c.43 0 .77-.35.77-.77s-.35-.77-.77-.77h-2.72C34.78 42.74 34.44 43.08 34.44 43.51z"></path>
    <path d="M63.95,17.24c0-0.05-0.02-0.1-0.03-0.14c-0.08-0.41-0.37-0.72-0.76-0.84c-0.1-0.04-0.21-0.07-0.33-0.07h-0.2
		c-5.67,0-9.71-2.32-12.35-7.08c-0.01-0.03-0.03-0.05-0.05-0.08C50.22,9.02,50.21,9,50.19,8.98c-0.06-0.07-0.13-0.13-0.21-0.17
		c0-0.01,0-0.01,0-0.01c-0.01,0-0.02,0-0.02-0.01C49.85,8.74,49.73,8.7,49.6,8.7c-0.13,0-0.25,0.04-0.36,0.1c-0.01,0-0.02,0-0.02,0
		s-0.01,0-0.01,0.01c-0.08,0.04-0.15,0.1-0.21,0.17C49,9,48.99,9.02,48.98,9.03c-0.02,0.03-0.04,0.05-0.06,0.08
		c-2.64,4.77-6.69,7.08-12.38,7.08h-0.17c-0.59,0.02-1.09,0.48-1.12,1.05c-0.07,1.34-0.05,2.63,0.05,3.86H3.93
		C1.76,21.1,0,22.87,0,25.04v26.32c0,2.17,1.76,3.94,3.93,3.94h43c2.18,0,3.94-1.77,3.94-3.94V39.49c0.3-0.17,0.6-0.32,0.89-0.49
		C59.91,34.25,63.93,27.72,64,19.11C64,18.5,63.99,17.87,63.95,17.24z M49.33,51.36c0,1.32-1.07,2.39-2.4,2.39h-43
		c-1.32,0-2.39-1.07-2.39-2.39V25.04c0-1.31,1.07-2.39,2.39-2.39h31.54c1.11,7.46,5.65,13.17,13.77,17.35
		C49.28,40,49.3,40,49.33,40.01V51.36z M62.4,20.1c-0.01,0.27-0.02,0.53-0.04,0.78c-0.03,0.29-0.06,0.56-0.1,0.84
		c-0.03,0.26-0.05,0.52-0.09,0.76c-0.05,0.28-0.1,0.54-0.16,0.81c-0.04,0.24-0.09,0.49-0.14,0.73c-0.07,0.27-0.14,0.53-0.22,0.78
		c-0.06,0.24-0.12,0.48-0.2,0.7c-0.08,0.26-0.18,0.51-0.27,0.76c-0.08,0.23-0.16,0.45-0.25,0.67c-0.1,0.25-0.22,0.5-0.34,0.74
		c-0.1,0.21-0.19,0.43-0.3,0.63c-0.12,0.25-0.26,0.49-0.4,0.72c-0.11,0.2-0.22,0.41-0.34,0.6c-0.15,0.24-0.32,0.48-0.48,0.7
		c-0.13,0.19-0.25,0.39-0.38,0.56c-0.18,0.24-0.37,0.47-0.54,0.69c-0.14,0.18-0.28,0.36-0.43,0.53c-0.19,0.23-0.41,0.45-0.61,0.67
		c-0.16,0.17-0.3,0.34-0.46,0.5c-0.23,0.22-0.47,0.44-0.69,0.65c-0.17,0.16-0.33,0.32-0.51,0.47c-0.25,0.22-0.52,0.44-0.78,0.64
		c-0.17,0.15-0.34,0.29-0.52,0.43c-0.29,0.22-0.59,0.44-0.89,0.64c-0.18,0.13-0.35,0.26-0.53,0.38c-0.34,0.23-0.7,0.46-1.06,0.67
		c-0.16,0.1-0.31,0.2-0.47,0.3c-0.53,0.32-1.08,0.62-1.64,0.92c-9.01-4.75-13.21-11.52-12.83-20.7c0.66,0,1.31-0.04,1.93-0.11
		c0.06-0.01,0.11-0.01,0.17-0.02c0.59-0.07,1.17-0.17,1.73-0.3c0.08-0.01,0.15-0.03,0.22-0.04c0.55-0.14,1.08-0.3,1.61-0.48
		c0.07-0.03,0.14-0.06,0.21-0.08c0.52-0.2,1.01-0.42,1.49-0.66c0.07-0.03,0.13-0.07,0.19-0.1c0.49-0.26,0.95-0.54,1.4-0.86
		c0.04-0.03,0.08-0.06,0.13-0.09c0.46-0.34,0.9-0.69,1.32-1.08c0.01-0.02,0.03-0.03,0.04-0.05c0.44-0.41,0.85-0.84,1.25-1.32
		l0.01-0.01c0.38-0.47,0.74-0.95,1.08-1.48c0.02-0.03,0.05-0.06,0.07-0.09c0.02,0.04,0.05,0.06,0.07,0.1
		c2.87,4.36,7.13,6.6,12.67,6.66h0.07c0.01,0.24,0.02,0.47,0.02,0.69c0,0.27,0.01,0.53,0.01,0.8C62.43,19.53,62.42,19.81,62.4,20.1z
		"></path>
    <path d="M17.14 27.71v4.54c0 1.13-.91 2.04-2.04 2.04H7.68c-1.12 0-2.04-.91-2.04-2.04v-4.54c0-1.13.92-2.04 2.04-2.04h7.42C16.23 25.67 17.14 26.58 17.14 27.71zM53.68 22.01l-.11-1.31c-.16-2.05-1.9-3.67-3.96-3.67-2.06 0-3.8 1.61-3.97 3.67l-.11 1.31c-1.02.04-1.84.88-1.84 1.91v5.88c0 1.06.87 1.92 1.93 1.92h7.99c1.06 0 1.92-.86 1.92-1.92v-5.88C55.52 22.9 54.71 22.05 53.68 22.01zM50.38 27.88v1.09c0 .43-.35.77-.77.77s-.77-.35-.77-.77v-1.09c-.73-.3-1.25-1.02-1.25-1.86 0-1.11.9-2.02 2.02-2.02 1.11 0 2.02.91 2.02 2.02C51.63 26.86 51.11 27.58 50.38 27.88zM47.18 20.83c.1-1.26 1.17-2.24 2.43-2.24 1.26 0 2.32.98 2.43 2.24L52.12 22h-5.04L47.18 20.83z"></path>
  </g>
</svg>
