<svg xmlns="http://www.w3.org/2000/svg" xmlns:xlink="http://www.w3.org/1999/xlink" width="500" zoomAndPan="magnify" viewBox="0 0 375 374.999991" height="500" preserveAspectRatio="xMidYMid meet" version="1.0"><defs><g/><clipPath id="79b14d1dcd"><path d="M 93 152.46875 L 158.308594 152.46875 L 158.308594 212.46875 L 93 212.46875 Z M 93 152.46875 " clip-rule="nonzero"/></clipPath></defs><g clip-path="url(#79b14d1dcd)"><path fill="#202020" d="M 95.78125 201.6875 L 134.4375 201.6875 C 136.230469 201.6875 137.75 200.351562 137.996094 198.585938 L 142.707031 163.226562 C 142.707031 163.226562 142.707031 163.226562 142.707031 163.210938 C 143.496094 157.089844 148.753906 152.453125 154.9375 152.453125 L 155.863281 152.453125 C 157.125 152.453125 158.144531 153.472656 158.144531 154.734375 C 158.144531 155.992188 157.125 157.011719 155.863281 157.011719 L 154.9375 157.011719 C 151.03125 157.011719 147.71875 159.929688 147.21875 163.804688 C 147.21875 163.804688 147.21875 163.804688 147.21875 163.820312 L 142.507812 199.179688 C 141.976562 203.207031 138.511719 206.246094 134.4375 206.246094 L 133.070312 206.246094 C 133.027344 209.558594 130.351562 212.234375 127.023438 212.234375 C 123.695312 212.234375 121.019531 209.558594 120.976562 206.246094 L 111.523438 206.246094 C 111.476562 209.558594 108.804688 212.234375 105.476562 212.234375 C 102.148438 212.234375 99.472656 209.558594 99.429688 206.246094 L 95.78125 206.246094 C 94.519531 206.246094 93.503906 205.226562 93.503906 203.964844 C 93.503906 202.707031 94.519531 201.6875 95.78125 201.6875 Z M 95.78125 201.6875 " fill-opacity="1" fill-rule="nonzero"/></g><path fill="#77bf3f" d="M 109.425781 162.921875 L 116.949219 162.011719 C 119.820312 166.601562 126.050781 174.503906 137.082031 179.214844 L 134.984375 194.878906 C 119.410156 185.898438 111.875 169.351562 109.425781 162.921875 Z M 109.425781 162.921875 " fill-opacity="1" fill-rule="nonzero"/><path fill="#50b948" d="M 104.761719 163.484375 C 106.90625 169.59375 114.609375 188.222656 132.039062 198.496094 L 108.121094 198.496094 C 100.097656 184.46875 98.121094 169.136719 97.664062 164.335938 Z M 104.761719 163.484375 " fill-opacity="1" fill-rule="nonzero"/><path fill="#fbcc06" d="M 137.722656 174.503906 C 129.789062 170.808594 124.789062 165.324219 122.023438 161.402344 L 136.839844 159.625 C 137.539062 159.535156 138.238281 159.792969 138.738281 160.292969 C 139.242188 160.796875 139.46875 161.496094 139.378906 162.195312 Z M 137.722656 174.503906 " fill-opacity="1" fill-rule="nonzero"/><path fill="#38a34a" d="M 82.605469 166.828125 C 82.988281 166.34375 83.535156 166.039062 84.140625 165.960938 L 93.152344 164.882812 C 93.609375 169.972656 95.476562 184.457031 102.90625 198.496094 L 93.515625 198.496094 C 89.324219 198.496094 85.738281 195.367188 85.191406 191.203125 L 82.179688 168.53125 C 82.058594 167.921875 82.226562 167.316406 82.605469 166.828125 Z M 82.605469 166.828125 " fill-opacity="1" fill-rule="nonzero"/><g fill="#202020" fill-opacity="1"><g transform="translate(164.948547, 179.305419)"><g><path d="M 10.078125 0.453125 C 8.359375 0.453125 6.835938 0.140625 5.515625 -0.484375 C 4.203125 -1.109375 3.175781 -2 2.4375 -3.15625 C 1.695312 -4.320312 1.328125 -5.710938 1.328125 -7.328125 L 6.265625 -7.328125 C 6.265625 -6.234375 6.644531 -5.421875 7.40625 -4.890625 C 8.175781 -4.367188 9.054688 -4.109375 10.046875 -4.109375 C 10.671875 -4.109375 11.257812 -4.207031 11.8125 -4.40625 C 12.363281 -4.613281 12.816406 -4.914062 13.171875 -5.3125 C 13.523438 -5.707031 13.703125 -6.1875 13.703125 -6.75 C 13.703125 -7.332031 13.492188 -7.789062 13.078125 -8.125 C 12.671875 -8.457031 12.125 -8.734375 11.4375 -8.953125 C 10.75 -9.171875 9.992188 -9.375 9.171875 -9.5625 C 8.335938 -9.757812 7.476562 -10 6.59375 -10.28125 C 5.707031 -10.5625 4.882812 -10.929688 4.125 -11.390625 C 3.375 -11.847656 2.769531 -12.46875 2.3125 -13.25 C 1.863281 -14.039062 1.640625 -15.039062 1.640625 -16.25 C 1.640625 -18.425781 2.378906 -20.097656 3.859375 -21.265625 C 5.335938 -22.441406 7.335938 -23.03125 9.859375 -23.03125 C 12.441406 -23.03125 14.441406 -22.378906 15.859375 -21.078125 C 17.285156 -19.773438 18 -18.003906 18 -15.765625 L 13.15625 -15.765625 C 13.15625 -16.734375 12.804688 -17.445312 12.109375 -17.90625 C 11.421875 -18.375 10.625 -18.609375 9.71875 -18.609375 C 8.925781 -18.609375 8.195312 -18.4375 7.53125 -18.09375 C 6.863281 -17.75 6.53125 -17.210938 6.53125 -16.484375 C 6.53125 -15.941406 6.726562 -15.515625 7.125 -15.203125 C 7.519531 -14.890625 8.046875 -14.628906 8.703125 -14.421875 C 9.359375 -14.222656 10.085938 -14.023438 10.890625 -13.828125 C 11.753906 -13.609375 12.632812 -13.351562 13.53125 -13.0625 C 14.4375 -12.78125 15.273438 -12.390625 16.046875 -11.890625 C 16.828125 -11.390625 17.457031 -10.726562 17.9375 -9.90625 C 18.425781 -9.09375 18.671875 -8.0625 18.671875 -6.8125 C 18.671875 -5.175781 18.273438 -3.816406 17.484375 -2.734375 C 16.703125 -1.660156 15.664062 -0.859375 14.375 -0.328125 C 13.082031 0.191406 11.648438 0.453125 10.078125 0.453125 Z M 10.078125 0.453125 "/></g></g></g><g fill="#202020" fill-opacity="1"><g transform="translate(184.947588, 179.305419)"><g><path d="M 18.1875 -22.625 L 18.1875 -18.0625 L 11.890625 -18.0625 L 11.890625 0 L 6.984375 0 L 6.984375 -18.0625 L 0.703125 -18.0625 L 0.703125 -22.625 Z M 18.1875 -22.625 "/></g></g></g><g fill="#202020" fill-opacity="1"><g transform="translate(203.815828, 179.305419)"><g><path d="M 1.96875 -6.78125 L 1.96875 -11.34375 L 12.53125 -11.34375 L 12.53125 -6.78125 Z M 1.96875 -6.78125 "/></g></g></g><g fill="#202020" fill-opacity="1"><g transform="translate(218.322403, 179.305419)"><g><path d="M 30.3125 0 L 25.328125 0 L 23.109375 -14.765625 L 16.34375 -0.03125 L 15.15625 -0.03125 L 8.40625 -14.765625 L 6.171875 0 L 1.15625 0 L 4.71875 -22.625 L 9.625 -22.625 L 15.734375 -8.75 L 21.875 -22.625 L 26.78125 -22.625 Z M 30.3125 0 "/></g></g></g><g fill="#202020" fill-opacity="1"><g transform="translate(249.823328, 179.305419)"><g><path d="M 16.515625 -17.484375 L 20.03125 -17.484375 L 20.03125 -0.03125 L 16.3125 -0.03125 L 15.9375 -1.578125 C 15.175781 -0.929688 14.316406 -0.425781 13.359375 -0.0625 C 12.398438 0.300781 11.375 0.484375 10.28125 0.484375 C 8.53125 0.484375 6.960938 0.0820312 5.578125 -0.71875 C 4.203125 -1.53125 3.113281 -2.628906 2.3125 -4.015625 C 1.519531 -5.410156 1.125 -6.988281 1.125 -8.75 C 1.125 -10.5 1.519531 -12.066406 2.3125 -13.453125 C 3.113281 -14.847656 4.203125 -15.941406 5.578125 -16.734375 C 6.960938 -17.535156 8.53125 -17.9375 10.28125 -17.9375 C 11.394531 -17.9375 12.4375 -17.742188 13.40625 -17.359375 C 14.375 -16.984375 15.238281 -16.460938 16 -15.796875 Z M 10.65625 -3.96875 C 11.5625 -3.96875 12.375 -4.171875 13.09375 -4.578125 C 13.820312 -4.992188 14.390625 -5.5625 14.796875 -6.28125 C 15.203125 -7.007812 15.40625 -7.832031 15.40625 -8.75 C 15.40625 -9.65625 15.203125 -10.46875 14.796875 -11.1875 C 14.390625 -11.914062 13.820312 -12.488281 13.09375 -12.90625 C 12.375 -13.320312 11.5625 -13.53125 10.65625 -13.53125 C 9.738281 -13.53125 8.921875 -13.320312 8.203125 -12.90625 C 7.492188 -12.488281 6.929688 -11.914062 6.515625 -11.1875 C 6.109375 -10.46875 5.90625 -9.65625 5.90625 -8.75 C 5.90625 -7.832031 6.109375 -7.015625 6.515625 -6.296875 C 6.929688 -5.585938 7.492188 -5.019531 8.203125 -4.59375 C 8.921875 -4.175781 9.738281 -3.96875 10.65625 -3.96875 Z M 10.65625 -3.96875 "/></g></g></g><g fill="#202020" fill-opacity="1"><g transform="translate(272.116291, 179.305419)"><g><path d="M 11.1875 -17.546875 L 12.734375 -17.546875 L 12.734375 -13.09375 L 10.703125 -13.09375 C 9.359375 -13.09375 8.398438 -12.78125 7.828125 -12.15625 C 7.265625 -11.53125 6.984375 -10.503906 6.984375 -9.078125 L 6.984375 0 L 2.265625 0 L 2.265625 -17.453125 L 5.296875 -17.453125 L 6.140625 -15.3125 C 7.328125 -16.800781 9.007812 -17.546875 11.1875 -17.546875 Z M 11.1875 -17.546875 "/></g></g></g><g fill="#202020" fill-opacity="1"><g transform="translate(285.265907, 179.305419)"><g><path d="M 18.28125 0 L 12.5625 0 L 6.984375 -8.34375 L 6.984375 0 L 2.265625 0 L 2.265625 -23.75 L 6.984375 -23.75 L 6.984375 -9.6875 L 12.21875 -17.453125 L 17.640625 -17.453125 L 11.765625 -9.140625 Z M 18.28125 0 "/></g></g></g><g fill="#202020" fill-opacity="1"><g transform="translate(303.391047, 179.305419)"><g><path d="M 19.1875 -8.78125 C 19.1875 -8.332031 19.15625 -7.875 19.09375 -7.40625 L 5.90625 -7.40625 C 6.101562 -6.21875 6.578125 -5.304688 7.328125 -4.671875 C 8.085938 -4.035156 9.035156 -3.71875 10.171875 -3.71875 C 10.992188 -3.71875 11.726562 -3.894531 12.375 -4.25 C 13.019531 -4.601562 13.515625 -5.09375 13.859375 -5.71875 L 18.84375 -5.71875 C 18.195312 -3.820312 17.097656 -2.3125 15.546875 -1.1875 C 13.992188 -0.0703125 12.203125 0.484375 10.171875 0.484375 C 8.453125 0.484375 6.90625 0.0820312 5.53125 -0.71875 C 4.164062 -1.53125 3.085938 -2.628906 2.296875 -4.015625 C 1.515625 -5.410156 1.125 -6.976562 1.125 -8.71875 C 1.125 -10.46875 1.515625 -12.035156 2.296875 -13.421875 C 3.085938 -14.816406 4.164062 -15.914062 5.53125 -16.71875 C 6.90625 -17.53125 8.453125 -17.9375 10.171875 -17.9375 C 11.960938 -17.9375 13.535156 -17.519531 14.890625 -16.6875 C 16.253906 -15.863281 17.3125 -14.757812 18.0625 -13.375 C 18.8125 -12 19.1875 -10.46875 19.1875 -8.78125 Z M 10.171875 -13.921875 C 9.117188 -13.921875 8.234375 -13.628906 7.515625 -13.046875 C 6.796875 -12.472656 6.304688 -11.664062 6.046875 -10.625 L 14.46875 -10.625 C 13.78125 -12.820312 12.347656 -13.921875 10.171875 -13.921875 Z M 10.171875 -13.921875 "/></g></g></g><g fill="#202020" fill-opacity="1"><g transform="translate(323.680872, 179.305419)"><g><path d="M 10.796875 -4.203125 L 12.921875 -4.203125 L 12.921875 0 L 9.59375 0 C 7.675781 0 6.160156 -0.550781 5.046875 -1.65625 C 3.941406 -2.769531 3.390625 -4.296875 3.390625 -6.234375 L 3.390625 -13.671875 L 0.21875 -13.671875 L 0.21875 -14.671875 L 7.140625 -22 L 8.015625 -22 L 8.015625 -17.453125 L 12.828125 -17.453125 L 12.828125 -13.671875 L 8.109375 -13.671875 L 8.109375 -6.84375 C 8.109375 -6.007812 8.335938 -5.359375 8.796875 -4.890625 C 9.265625 -4.429688 9.929688 -4.203125 10.796875 -4.203125 Z M 10.796875 -4.203125 "/></g></g></g><g fill="#202020" fill-opacity="1"><g transform="translate(164.948547, 209.305417)"><g><path d="M 11.96875 -24.015625 C 13.59375 -24.015625 15.039062 -23.65625 16.3125 -22.9375 C 17.582031 -22.21875 18.59375 -21.234375 19.34375 -19.984375 C 20.101562 -18.734375 20.484375 -17.320312 20.484375 -15.75 C 20.484375 -14.164062 20.109375 -12.75 19.359375 -11.5 C 18.617188 -10.257812 17.609375 -9.285156 16.328125 -8.578125 C 15.046875 -7.867188 13.59375 -7.515625 11.96875 -7.515625 L 7.953125 -7.515625 L 7.953125 0 L 2.75 0 L 2.75 -24.015625 Z M 11.765625 -12.3125 C 12.796875 -12.3125 13.625 -12.640625 14.25 -13.296875 C 14.882812 -13.953125 15.203125 -14.769531 15.203125 -15.75 C 15.203125 -16.757812 14.882812 -17.585938 14.25 -18.234375 C 13.625 -18.890625 12.796875 -19.21875 11.765625 -19.21875 L 7.953125 -19.21875 L 7.953125 -12.3125 Z M 11.765625 -12.3125 "/></g></g></g><g fill="#202020" fill-opacity="1"><g transform="translate(186.290873, 209.305417)"><g><path d="M 2.40625 0 L 2.40625 -25.21875 L 7.40625 -25.21875 L 7.40625 0 Z M 2.40625 0 "/></g></g></g><g fill="#202020" fill-opacity="1"><g transform="translate(196.104227, 209.305417)"><g><path d="M 17.53125 -18.5625 L 21.28125 -18.5625 L 21.28125 -0.03125 L 17.328125 -0.03125 L 16.921875 -1.6875 C 16.117188 -1 15.207031 -0.457031 14.1875 -0.0625 C 13.164062 0.320312 12.070312 0.515625 10.90625 0.515625 C 9.050781 0.515625 7.390625 0.0859375 5.921875 -0.765625 C 4.460938 -1.628906 3.3125 -2.796875 2.46875 -4.265625 C 1.625 -5.742188 1.203125 -7.421875 1.203125 -9.296875 C 1.203125 -11.148438 1.625 -12.8125 2.46875 -14.28125 C 3.3125 -15.757812 4.460938 -16.921875 5.921875 -17.765625 C 7.390625 -18.617188 9.050781 -19.046875 10.90625 -19.046875 C 12.101562 -19.046875 13.210938 -18.84375 14.234375 -18.4375 C 15.265625 -18.039062 16.179688 -17.488281 16.984375 -16.78125 Z M 11.328125 -4.21875 C 12.285156 -4.21875 13.144531 -4.4375 13.90625 -4.875 C 14.675781 -5.3125 15.273438 -5.910156 15.703125 -6.671875 C 16.140625 -7.441406 16.359375 -8.316406 16.359375 -9.296875 C 16.359375 -10.253906 16.140625 -11.113281 15.703125 -11.875 C 15.273438 -12.644531 14.675781 -13.253906 13.90625 -13.703125 C 13.144531 -14.148438 12.285156 -14.375 11.328125 -14.375 C 10.335938 -14.375 9.460938 -14.148438 8.703125 -13.703125 C 7.953125 -13.253906 7.359375 -12.644531 6.921875 -11.875 C 6.492188 -11.113281 6.28125 -10.253906 6.28125 -9.296875 C 6.28125 -8.316406 6.492188 -7.445312 6.921875 -6.6875 C 7.359375 -5.9375 7.953125 -5.335938 8.703125 -4.890625 C 9.460938 -4.441406 10.335938 -4.21875 11.328125 -4.21875 Z M 11.328125 -4.21875 "/></g></g></g><g fill="#202020" fill-opacity="1"><g transform="translate(219.779797, 209.305417)"><g><path d="M 11.015625 0.515625 C 9.160156 0.515625 7.488281 0.0820312 6 -0.78125 C 4.519531 -1.65625 3.347656 -2.832031 2.484375 -4.3125 C 1.628906 -5.800781 1.203125 -7.472656 1.203125 -9.328125 C 1.203125 -11.179688 1.628906 -12.835938 2.484375 -14.296875 C 3.347656 -15.765625 4.519531 -16.921875 6 -17.765625 C 7.488281 -18.617188 9.171875 -19.046875 11.046875 -19.046875 C 12.648438 -19.046875 14.109375 -18.726562 15.421875 -18.09375 C 16.734375 -17.46875 17.828125 -16.582031 18.703125 -15.4375 C 19.585938 -14.289062 20.179688 -12.960938 20.484375 -11.453125 L 15.515625 -11.453125 C 15.097656 -12.367188 14.492188 -13.078125 13.703125 -13.578125 C 12.921875 -14.085938 12.023438 -14.34375 11.015625 -14.34375 C 10.117188 -14.34375 9.3125 -14.117188 8.59375 -13.671875 C 7.875 -13.222656 7.304688 -12.617188 6.890625 -11.859375 C 6.484375 -11.109375 6.28125 -10.253906 6.28125 -9.296875 C 6.28125 -8.335938 6.484375 -7.472656 6.890625 -6.703125 C 7.304688 -5.941406 7.875 -5.332031 8.59375 -4.875 C 9.3125 -4.414062 10.117188 -4.1875 11.015625 -4.1875 C 12.046875 -4.1875 12.941406 -4.453125 13.703125 -4.984375 C 14.472656 -5.523438 15.078125 -6.300781 15.515625 -7.3125 L 20.546875 -7.3125 C 20.253906 -5.75 19.660156 -4.378906 18.765625 -3.203125 C 17.878906 -2.023438 16.769531 -1.109375 15.4375 -0.453125 C 14.113281 0.191406 12.640625 0.515625 11.015625 0.515625 Z M 11.015625 0.515625 "/></g></g></g><g fill="#202020" fill-opacity="1"><g transform="translate(241.225062, 209.305417)"><g><path d="M 20.375 -9.328125 C 20.375 -8.847656 20.34375 -8.359375 20.28125 -7.859375 L 6.28125 -7.859375 C 6.488281 -6.597656 6.988281 -5.628906 7.78125 -4.953125 C 8.582031 -4.285156 9.59375 -3.953125 10.8125 -3.953125 C 11.675781 -3.953125 12.453125 -4.140625 13.140625 -4.515625 C 13.828125 -4.890625 14.351562 -5.410156 14.71875 -6.078125 L 20 -6.078125 C 19.3125 -4.054688 18.144531 -2.453125 16.5 -1.265625 C 14.851562 -0.078125 12.957031 0.515625 10.8125 0.515625 C 8.976562 0.515625 7.332031 0.0859375 5.875 -0.765625 C 4.425781 -1.628906 3.285156 -2.796875 2.453125 -4.265625 C 1.617188 -5.742188 1.203125 -7.410156 1.203125 -9.265625 C 1.203125 -11.117188 1.617188 -12.78125 2.453125 -14.25 C 3.285156 -15.726562 4.425781 -16.894531 5.875 -17.75 C 7.332031 -18.613281 8.976562 -19.046875 10.8125 -19.046875 C 12.707031 -19.046875 14.375 -18.601562 15.8125 -17.71875 C 17.257812 -16.84375 18.378906 -15.671875 19.171875 -14.203125 C 19.972656 -12.742188 20.375 -11.117188 20.375 -9.328125 Z M 10.8125 -14.78125 C 9.6875 -14.78125 8.738281 -14.472656 7.96875 -13.859375 C 7.207031 -13.242188 6.691406 -12.382812 6.421875 -11.28125 L 15.375 -11.28125 C 14.644531 -13.613281 13.125 -14.78125 10.8125 -14.78125 Z M 10.8125 -14.78125 "/></g></g></g></svg>